<svg width="345" height="345" viewBox="0 0 345 345" fill="none" xmlns="http://www.w3.org/2000/svg">
<path d="M177.467 33.0921C178.379 33.0163 179.408 32.8992 180.297 33.1654C180.853 33.3315 181.218 33.6132 181.553 34.0762C183.709 37.0454 184.951 44.12 186.839 47.8187L186.945 48.0246C189.83 48.7736 192.668 49.7468 195.565 50.4243C197.147 50.7939 202.511 51.3218 203.491 52.1593C203.797 52.4212 203.949 52.7354 203.903 53.1435C203.843 53.6971 203.342 54.3818 202.969 54.7686C200.345 57.488 193.369 58.4717 189.792 58.7561C188.509 58.8582 187.24 58.7924 185.967 58.8679C185.488 58.8964 185.343 58.9313 185.026 59.2924C184.692 60.6605 186.335 63.0725 186.86 64.3744C187.197 65.2073 187.444 66.1799 187.023 67.0256C186.509 68.0584 184.643 68.2579 183.642 68.5089C183.721 69.0455 183.84 69.632 183.823 70.1746C183.791 71.1104 183.112 71.6876 182.501 72.2954L182.249 74.424C182.189 74.5053 182.131 74.5876 182.07 74.6678C181.138 75.8974 180.892 77.3215 180.028 78.5378C178.244 81.0517 175.528 78.6279 173.553 79.1366C173.294 79.203 173.263 79.3763 173.134 79.5854C173.045 81.0699 174.073 82.9044 174.647 84.27C177.721 84.0243 180.551 84.3402 183.6 84.4085C184.888 84.4373 186.178 84.3227 187.466 84.3404C188.838 84.3593 190.285 84.5319 191.648 84.3743C197.54 83.6924 204.174 82.0364 210.102 80.9292C212.675 80.4485 215.253 79.9318 217.838 79.5246C219.356 79.2853 220.941 79.2238 222.437 78.8878C226.036 78.0794 229.349 76.3548 233.038 75.7061C235.706 75.2368 238.318 75.7715 240.995 75.8218C243.843 75.8753 247.641 75.6652 250.371 76.0283C251.023 76.1152 252.112 76.2652 252.622 76.7358C252.99 77.0773 252.993 77.2083 253.036 77.6781C252.871 78.1312 252.698 78.4654 252.361 78.8174C250.63 80.6178 243.49 80.4142 240.956 80.4047C240.975 80.464 240.994 80.5236 241.012 80.5826C241.128 80.9184 241.263 81.2548 241.328 81.6046C241.737 83.7566 239 86.8994 237.756 88.514C237.202 89.2319 236.514 90.1486 235.691 90.5545C232.895 91.9353 227.12 90.0137 224.162 89.6766C223.305 89.579 222.357 89.7661 221.503 89.8797C221.037 91.6042 220.317 95.7318 219.159 96.9477C217.037 99.1704 212.264 98.0632 209.499 98.5744C205.89 99.2416 202.325 100.482 198.726 101.276C190.056 103.236 181.218 104.353 172.335 104.612L171.844 108.331C174.446 109.492 177.181 110.435 179.89 111.316C182.4 112.133 188.42 113.474 190.283 114.951C190.978 115.503 190.99 116.231 191.065 117.046C193.391 117.64 195.821 118.21 198.213 118.429C200.95 118.679 203.75 118.473 206.406 119.307C208.195 119.868 209.834 120.929 211.509 121.761C212.943 121.076 214.285 120.081 215.553 119.13C221.304 114.815 224.341 110.054 228.749 104.673C231.199 101.655 233.871 98.8252 236.746 96.2075C239.924 93.338 243.294 90.5629 246.893 88.2338C248.83 86.9804 251.311 85.9737 253.012 84.4544C254.099 83.4848 254.857 82.1092 255.665 80.9055C258.5 76.6789 262.026 72.847 265.301 68.9586C267.075 66.8532 268.798 64.4251 270.774 62.5329C271.214 62.1121 271.877 61.5323 272.518 61.4788C275.965 61.1915 274.801 71.2513 276.737 72.8775C276.837 72.8528 276.946 72.8497 277.04 72.8032C277.422 72.6135 278.599 70.4598 278.913 70.0112C280.353 67.955 281.913 65.6237 283.716 63.879C284.394 63.2218 285.021 62.7426 285.993 62.7711C290.038 64.4662 286.236 80.3246 287.419 84.3936C287.521 84.7482 287.739 85.0486 288.009 85.2948C289.045 86.2403 290.42 87.0254 291.561 87.8578C294.317 89.8658 297.278 92.0661 299.662 94.5045C302.433 97.3379 303.145 100.022 303.559 103.853C303.692 105.086 303.842 106.287 304.379 107.425C305.941 110.743 308.995 112.916 311.219 115.717C312.188 116.938 312.582 118.286 312.381 119.835C312.185 121.332 311.573 122.682 310.956 124.042C309.082 128.175 308.008 129.38 304.404 132.065C299.749 144.415 289.668 133.409 280.272 139.308C271.555 144.78 270.814 159.133 268.721 168.272C280.666 167.517 288.46 167.11 299.553 172.994C306.17 176.504 320.238 185.297 322.405 192.58C323.114 194.965 323.043 197.676 321.788 199.869C320.802 201.595 319.016 202.815 317.108 203.315C307.601 205.803 302.871 193.484 296.021 189.715C290.798 186.841 281.946 188.049 276.493 189.594C284.67 194.406 290.529 198.278 295.484 206.726C297.696 210.499 300.487 216.028 299.233 220.535C298.74 222.306 297.611 223.766 295.995 224.65C293.971 225.758 291.684 225.905 289.489 225.248C281.97 223.003 281.286 216.379 278.084 210.575C277.333 209.214 276.357 208.019 275.125 207.065C272.124 204.741 262.365 200.691 258.541 199.609C257.137 199.211 255.67 199.038 254.215 199.184C249.379 199.672 244.453 201.253 239.704 202.296L228.975 204.615C226.878 205.082 224.591 205.474 222.597 206.28C220.169 207.261 217.991 209.144 215.676 210.405C208.613 214.253 200.875 217.408 192.948 218.908C188.315 219.785 183.59 220.147 178.883 220.356C169.82 220.757 156.21 220.062 148.385 224.649C141.551 228.653 135.167 241.925 129.334 248.326C123.655 254.557 115.716 259.296 108.419 263.386C105.154 265.272 101.614 267.158 98.8868 269.793C93.2449 275.244 89.9254 285.831 86.6937 292.998C84.9567 296.849 82.9913 300.57 80.4912 303.99C77.4886 308.098 72.8921 312.962 67.5862 313.754C65.3563 314.086 63.0536 313.711 61.2376 312.307C59.7378 311.147 58.6429 309.521 58.4005 307.625C57.4781 300.408 63.1108 298.024 66.8281 293.354C70.6152 288.594 73.1858 282.385 75.3641 276.73C76.9725 272.555 81.6489 256.449 84.2488 254.153C85.6727 252.896 88.5606 252.669 90.3877 252.238C102.274 249.438 112.258 244.967 119.872 234.932C117.497 236.866 115.207 238.831 112.65 240.533C101.455 247.978 88.8057 249.348 75.9267 251.648C73.1192 252.151 70.3765 252.809 67.8559 254.186C56.8067 260.221 52.1397 277.384 45.0258 287.531C42.1996 291.563 37.7859 296.569 32.6221 297.382C30.4379 297.726 28.2703 297.15 26.5109 295.819C24.6033 294.381 23.3594 292.231 23.0627 289.861C22.3324 283.634 28.1524 280.41 31.5341 276.222C33.652 273.598 35.2437 270.689 36.7146 267.668C38.7626 263.36 40.5793 258.945 42.1566 254.445C43.8685 249.631 45.065 243.924 48.0738 239.756C50.2668 236.72 53.4526 234.58 56.3804 232.312C61.2785 228.517 65.7754 223.812 68.7662 218.358C71.5127 213.351 72.6767 207.597 74.2611 202.149C77.5687 190.778 82.4617 180.886 89.8112 171.593C86.0176 168.801 82.2947 165.925 78.869 162.684C67.5432 151.968 58.2084 137.726 52.9869 123.027C48.6899 110.932 47.408 98.3285 47.507 85.5615C47.5288 82.7344 47.3523 78.7227 48.6243 76.1858C49.35 74.7382 50.579 73.6804 52.1388 73.2251C53.8166 72.7352 55.6444 73.0511 57.1226 73.9694C58.3979 74.7616 59.3518 76.2531 59.7309 77.6848C60.5892 80.9252 60.2118 85.6637 60.3682 89.1134C60.5823 94.9656 61.2966 100.789 62.5035 106.519C66.0079 122.68 75.6728 138.856 88.4499 149.41C92.6676 152.895 97.2841 155.603 101.869 158.556C104.534 157.399 106.944 155.109 109.376 153.504C112.927 151.161 116.655 149.076 120.372 147.013C119.52 146.514 118.618 146.083 117.745 145.62C113.278 143.255 103.921 137.466 102.546 132.484C102.343 131.746 102.358 131.131 102.845 130.506C104.219 128.742 106.596 127.371 108.354 125.991C111.906 123.203 115.424 120.166 118.225 116.604C123.047 110.473 125.131 104.338 126.714 96.8416C127.495 93.1459 128.293 89.5187 129.961 86.0981C131.325 83.3001 133.124 80.7768 135.438 78.6821C136.135 78.0509 137.729 77.2019 138.145 76.4668L137.96 76.1875C136.493 75.5454 134.279 75.9305 132.689 75.9569C132.029 75.4834 131.269 75.0107 131.075 74.173C131.187 73.8506 131.333 73.6518 131.577 73.4207C135.297 69.8922 140.992 68.5837 145.95 69.4621C147.133 69.6719 148.552 70.4612 149.673 70.4687C150.056 70.4711 149.903 70.5203 150.184 70.2342C149.781 69.3405 147.902 68.3983 147.13 67.5607C146.582 66.9663 146.098 66.3766 146.15 65.5331C147.258 63.3917 149.482 65.08 150.716 64.4052C150.898 64.0935 150.982 63.9519 150.972 63.5774C150.965 63.3395 150.85 63.0548 150.662 62.8936C149.302 61.7308 136.39 60.8355 134.726 59.2476C134.395 58.9316 134.183 58.5315 134.207 58.0624C134.255 57.1384 135.096 56.3569 135.76 55.8115C137.793 54.1419 140.42 53.0297 142.86 52.1111C152.989 48.2977 161.861 48.7711 172.328 49.7468C167.01 47.7316 159.91 47.3331 154.348 48.0135C154.339 47.955 154.33 47.8966 154.321 47.8378C154.021 45.6693 153.651 41.3783 155.14 39.5782C157.814 36.3457 172.778 33.558 177.467 33.0921Z" fill="#636363"/>
</svg>

